<svg width="120" height="36" viewBox="0 0 120 36" fill="none" xmlns="http://www.w3.org/2000/svg">
  <path d="M17.1 8.28H8.64V26H3.96V8.28H0V4.2H21.06V8.28H17.1Z" fill="#2E3A59"/>
  <path d="M38.4281 18.78C38.4281 18.92 38.4081 19.32 38.3681 19.98H25.9881C26.1681 20.98 26.6381 21.76 27.3981 22.32C28.1581 22.88 29.1081 23.16 30.2481 23.16C31.0481 23.16 31.7481 23.04 32.3481 22.8C32.9681 22.54 33.5281 22.14 34.0281 21.6L36.9081 24.48C35.3881 26.24 33.0881 27.12 30.0081 27.12C28.0881 27.12 26.3881 26.76 24.9081 26.04C23.4281 25.32 22.2881 24.3 21.4881 22.98C20.6881 21.66 20.2881 20.14 20.2881 18.42C20.2881 16.72 20.6781 15.2 21.4581 13.86C22.2581 12.52 23.3481 11.5 24.7281 10.8C26.1281 10.08 27.7081 9.72 29.4681 9.72C31.1881 9.72 32.7281 10.06 34.0881 10.74C35.4481 11.42 36.5181 12.42 37.2981 13.74C38.0981 15.04 38.4981 16.6 38.4981 18.42L38.4281 18.78ZM29.4981 13.44C28.5181 13.44 27.6981 13.72 27.0381 14.28C26.3781 14.84 25.9681 15.62 25.8081 16.62H33.1881C33.0281 15.64 32.6181 14.86 31.9581 14.28C31.2981 13.72 30.4781 13.44 29.4981 13.44Z" fill="#2E3A59"/>
  <path d="M46.9611 26.3C45.6011 26.3 44.2411 26.02 42.8811 25.46C41.5411 24.9 40.4811 24.16 39.7011 23.24L42.4611 20.24C43.0411 20.92 43.7611 21.46 44.6211 21.86C45.4811 22.26 46.3611 22.46 47.2611 22.46C48.0211 22.46 48.6011 22.32 49.0011 22.04C49.4011 21.76 49.6011 21.38 49.6011 20.9C49.6011 20.54 49.4611 20.24 49.1811 20C48.9011 19.76 48.5411 19.56 48.1011 19.4C47.6611 19.24 47.0411 19.06 46.2411 18.86C44.9611 18.54 43.8811 18.22 43.0011 17.9C42.1411 17.58 41.3811 17.08 40.7211 16.4C40.0811 15.72 39.7611 14.8 39.7611 13.64C39.7611 12.56 40.0611 11.6 40.6611 10.76C41.2611 9.92 42.1011 9.26 43.1811 8.78C44.2611 8.3 45.4811 8.06 46.8411 8.06C48.0011 8.06 49.1411 8.26 50.2611 8.66C51.3811 9.06 52.3411 9.64 53.1411 10.4L50.7411 13.4C50.2211 12.88 49.6011 12.48 48.8811 12.2C48.1611 11.92 47.4411 11.78 46.7211 11.78C46.0211 11.78 45.4811 11.92 45.1011 12.2C44.7211 12.48 44.5311 12.84 44.5311 13.28C44.5311 13.8 44.8411 14.2 45.4611 14.48C46.0811 14.76 47.0211 15.04 48.2811 15.32C49.5611 15.64 50.6411 15.96 51.5211 16.28C52.4011 16.6 53.1611 17.1 53.8011 17.78C54.4411 18.46 54.7611 19.38 54.7611 20.54C54.7611 21.6 54.4611 22.56 53.8611 23.42C53.2611 24.26 52.4111 24.92 51.3111 25.4C50.2111 26 49.1211 26.3 48.0411 26.3H46.9611Z" fill="#2E3A59"/>
  <path d="M68.5891 8.72C70.5091 8.72 72.2091 9.08 73.6891 9.8C75.1691 10.52 76.3091 11.56 77.1091 12.92C77.9091 14.26 78.3091 15.84 78.3091 17.66C78.3091 19.48 77.9091 21.06 77.1091 22.4C76.3091 23.74 75.1691 24.78 73.6891 25.52C72.2091 26.24 70.5091 26.6 68.5891 26.6H61.0691V8.72H68.5891ZM68.2691 22.58C70.0891 22.58 71.4691 22.08 72.4091 21.08C73.3491 20.08 73.8191 19.06 73.8191 17C73.8191 14.94 73.3491 13.5 72.4091 12.68C71.4691 11.86 70.0891 11.46 68.2691 11.48H65.5691V22.58H68.2691Z" fill="#2E3A59"/>
  <path d="M83.1647 26V4.2H87.8247V26H83.1647Z" fill="#2E3A59"/>
  <path d="M104.725 18.78C104.725 18.92 104.705 19.32 104.665 19.98H92.2852C92.4652 20.98 92.9352 21.76 93.6952 22.32C94.4552 22.88 95.4052 23.16 96.5452 23.16C97.3452 23.16 98.0452 23.04 98.6452 22.8C99.2652 22.54 99.8252 22.14 100.325 21.6L103.205 24.48C101.685 26.24 99.3852 27.12 96.3052 27.12C94.3852 27.12 92.6852 26.76 91.2052 26.04C89.7252 25.32 88.5852 24.3 87.7852 22.98C86.9852 21.66 86.5852 20.14 86.5852 18.42C86.5852 16.72 86.9752 15.2 87.7552 13.86C88.5552 12.52 89.6452 11.5 91.0252 10.8C92.4252 10.08 94.0052 9.72 95.7652 9.72C97.4852 9.72 99.0252 10.06 100.385 10.74C101.745 11.42 102.815 12.42 103.595 13.74C104.395 15.04 104.795 16.6 104.795 18.42L104.725 18.78ZM95.7952 13.44C94.8152 13.44 93.9952 13.72 93.3352 14.28C92.6752 14.84 92.2652 15.62 92.1052 16.62H99.4852C99.3252 15.64 98.9152 14.86 98.2552 14.28C97.5952 13.72 96.7752 13.44 95.7952 13.44Z" fill="#2E3A59"/>
  <circle cx="112" cy="24" r="8" fill="url(#paint0_linear_5_10)"/>
  <defs>
    <linearGradient id="paint0_linear_5_10" x1="104" y1="24" x2="120" y2="24" gradientUnits="userSpaceOnUse">
      <stop stop-color="#4D71F1"/>
      <stop offset="1" stop-color="#7141EE"/>
    </linearGradient>
  </defs>
</svg>